<?xml version="1.0" encoding="utf-8"?>
<!-- Generator: Adobe Illustrator 16.0.2, SVG Export Plug-In . SVG Version: 6.00 Build 0)  -->
<!DOCTYPE svg PUBLIC "-//W3C//DTD SVG 1.1//EN" "http://www.w3.org/Graphics/SVG/1.1/DTD/svg11.dtd">
<svg version="1.1" xmlns="http://www.w3.org/2000/svg" xmlns:xlink="http://www.w3.org/1999/xlink" x="0px" y="0px"
	 width="595.279px" height="841.89px" viewBox="0 0 595.279 841.89" enable-background="new 0 0 595.279 841.89"
	 xml:space="preserve">
<g id="Capa_1">
	<path fill="#40596B" d="M566.197,227.262c0-12.376-9.9-22.276-22.276-22.276H51.361c-12.377,0-22.277,9.9-22.277,22.276v313.11
		h537.113V227.262z"/>
	<path fill="#ACB3BA" d="M459.764,703.734h-19.802c-18.563,0-33.415-14.852-33.415-33.414v-48.266H189.969v48.266
		c0,18.563-14.851,33.414-33.414,33.414h-19.802c-3.713,0-7.426,3.713-7.426,7.426l0,0c0,3.713,3.713,7.426,7.426,7.426h324.248
		c3.713,0,7.425-3.713,7.425-7.426l0,0C467.19,706.208,463.477,703.734,459.764,703.734z"/>
	<rect x="62.498" y="238.4" fill="#FFFFFF" width="469.05" height="267.32"/>
	<rect x="62.498" y="238.4" fill="#84DBFF" width="469.05" height="267.32"/>
	<path fill="#CDD6E0" d="M29.083,540.373v58.166c0,12.377,9.9,22.277,22.277,22.277h491.322c12.376,0,22.276-9.9,22.276-22.277
		v-58.166H29.083z"/>
	<circle fill="#ACB3BA" cx="297.636" cy="581.216" r="17.326"/>
	<rect x="189.966" y="620.816" fill="#9CAAB5" width="216.581" height="17.326"/>
	<path fill="#55BFE9" d="M447.388,478.492v6.188V478.492z"/>
	<polygon fill="#FFD15C" points="435.012,484.681 435.012,484.681 447.388,484.681 	"/>
	<polygon fill="#54C0EB" points="462.239,238.4 441.2,506.958 154.079,506.958 133.041,238.4 	"/>
	<polygon fill="#334A5E" points="462.239,238.4 464.714,204.986 130.565,204.986 133.041,238.4 	"/>
	<rect x="154.079" y="123.305" fill="#F2F2F2" width="287.124" height="382.416"/>
	<rect x="185.024" y="154.245" fill="#FFD15C" width="225.236" height="80.439"/>
	<g>
		
			<rect x="355.39" y="177.615" transform="matrix(-0.7071 -0.7071 0.7071 -0.7071 498.4303 596.3321)" fill="#FF7058" width="34.652" height="34.652"/>
		<rect x="197.392" y="187.664" fill="#FF7058" width="126.233" height="12.376"/>
	</g>
	<rect x="176.357" y="388.153" fill="#ACB3BA" width="242.57" height="29.702"/>
	<polygon fill="#40596B" points="428.824,473.542 428.824,453.742 428.824,453.742 409.022,453.742 409.022,473.542 	"/>
	<polygon fill="#FFD05C" points="193.682,453.742 166.456,463.642 193.682,473.542 	"/>
	<rect x="193.679" y="453.742" fill="#FF7058" width="210.386" height="9.9"/>
	<rect x="193.679" y="463.638" fill="#F1543F" width="210.386" height="9.9"/>
	<polygon fill="#334A5E" points="177.594,467.355 166.456,463.642 177.594,459.929 	"/>
	<rect x="402.834" y="453.742" fill="#F2F2F2" width="6.188" height="19.805"/>
	<g>
		<rect x="176.357" y="417.855" fill="#CDD6E0" width="242.57" height="17.326"/>
		<rect x="185.024" y="388.153" fill="#CDD6E0" width="1.237" height="6.188"/>
		<rect x="201.104" y="388.153" fill="#CDD6E0" width="1.238" height="6.188"/>
		<rect x="217.197" y="388.153" fill="#CDD6E0" width="1.238" height="6.188"/>
		<rect x="233.289" y="388.153" fill="#CDD6E0" width="1.238" height="6.188"/>
		<rect x="249.37" y="388.153" fill="#CDD6E0" width="1.237" height="6.188"/>
		<rect x="265.462" y="388.153" fill="#CDD6E0" width="1.238" height="6.188"/>
		<rect x="280.314" y="388.153" fill="#CDD6E0" width="1.238" height="6.188"/>
		<rect x="296.406" y="388.153" fill="#CDD6E0" width="1.237" height="6.188"/>
		<rect x="312.487" y="388.153" fill="#CDD6E0" width="1.238" height="6.188"/>
		<rect x="328.579" y="388.153" fill="#CDD6E0" width="1.238" height="6.188"/>
		<rect x="344.672" y="388.153" fill="#CDD6E0" width="1.237" height="6.188"/>
		<rect x="360.753" y="388.153" fill="#CDD6E0" width="1.237" height="6.188"/>
		<rect x="376.845" y="388.153" fill="#CDD6E0" width="1.238" height="6.188"/>
		<rect x="392.938" y="388.153" fill="#CDD6E0" width="1.238" height="6.188"/>
		<rect x="407.789" y="388.153" fill="#CDD6E0" width="1.237" height="6.188"/>
	</g>
	<rect x="373.133" y="266.861" fill="#FFD15C" width="143.556" height="86.635"/>
	
		<rect x="427.556" y="292.939" transform="matrix(-0.7071 -0.7071 0.7071 -0.7071 540.0812 844.2334)" fill="#FF7058" width="34.652" height="34.652"/>
</g>
<g id="Layer_2">
	<linearGradient id="SVGID_1_" gradientUnits="userSpaceOnUse" x1="292.1404" y1="729.4448" x2="292.1404" y2="481.5854">
		<stop  offset="0.5369" style="stop-color:#FFFFFF"/>
		<stop  offset="0.7143" style="stop-color:#FFFFFF;stop-opacity:0"/>
	</linearGradient>
	<rect x="10.14" y="481.585" fill="url(#SVGID_1_)" width="564" height="247.859"/>
</g>
</svg>
