<?xml version="1.0" encoding="utf-8"?>
<!-- Generator: Adobe Illustrator 16.0.2, SVG Export Plug-In . SVG Version: 6.00 Build 0)  -->
<!DOCTYPE svg PUBLIC "-//W3C//DTD SVG 1.1//EN" "http://www.w3.org/Graphics/SVG/1.1/DTD/svg11.dtd">
<svg version="1.1" id="Layer_1" xmlns="http://www.w3.org/2000/svg" xmlns:xlink="http://www.w3.org/1999/xlink" x="0px" y="0px"
	 width="512px" height="512px" viewBox="0 0 512 512" enable-background="new 0 0 512 512" xml:space="preserve">
<rect x="33.5" y="23.5" fill="#FFFFFF" width="446" height="421"/>
<path fill="#00ACEE" d="M0,0v512h512V0H0z M396.941,183.711c0.139,3.12,0.21,6.257,0.21,9.407
	c0,96.102-73.146,206.911-206.908,206.911c-41.068,0-79.294-12.037-111.476-32.674c5.689,0.676,11.477,1.02,17.349,1.02
	c34.071,0,65.427-11.625,90.316-31.133c-31.823-0.585-58.681-21.61-67.936-50.503c4.442,0.852,8.999,1.309,13.685,1.309
	c6.632,0,13.058-0.894,19.16-2.552c-33.267-6.684-58.335-36.073-58.335-71.307c0-0.307,0-0.612,0.007-0.916
	c9.803,5.446,21.016,8.719,32.938,9.097c-19.514-13.041-32.349-35.301-32.349-60.528c0-13.329,3.586-25.82,9.847-36.563
	c35.866,43.999,89.452,72.949,149.89,75.985c-1.241-5.325-1.887-10.876-1.887-16.574c0-40.159,32.563-72.719,72.722-72.719
	c20.918,0,39.817,8.83,53.082,22.962c16.563-3.258,32.128-9.313,46.18-17.646c-5.429,16.982-16.959,31.231-31.975,40.233
	c14.712-1.759,28.727-5.669,41.768-11.453C423.481,160.651,411.153,173.46,396.941,183.711z"/>
</svg>
